# xmcd
# Track frame offsets:
# 183
# 10050
# 22093
# 34735
# 45623
# 57395
# 69165
# 76710
#
# Disc length: 1146 seconds
# Revision: 0
# Processed by: cddbd v1.5.2PL0 Copyright (c) Steve Scherf et al.
# Submitted via: VisiTrax 2.9.10.228 - For more info visit www.synapsa.com
#
DISCID=58047808
DTITLE=Dolly Parton - The queen of country
DYEAR=1988
DGENRE=
TTITLE0=Release me
TTITLE1=Two little orphans
TTITLE2=Little blossom
TTITLE3=(It wasn't God who made) Honky tonk angels
TTITLE4=Making believe
TTITLE5=Letter to heaven
TTITLE6=Puppy love
TTITLE7=Girl left alone
EXTD=
EXTT0=
EXTT1=
EXTT2=
EXTT3=
EXTT4=
EXTT5=
EXTT6=
EXTT7=
PLAYORDER=
